<?xml version="1.0" encoding="UTF-8"?>
<svg fill="#D80015" width="100pt" height="100pt" version="1.1" viewBox="0 0 100 100" xmlns="http://www.w3.org/2000/svg">
 <g fill-rule="evenodd">
  <path d="m50 95.832c25.312 0 45.832-20.52 45.832-45.832s-20.52-45.832-45.832-45.832-45.832 20.52-45.832 45.832 20.52 45.832 45.832 45.832zm0-4.1641c23.012 0 41.668-18.656 41.668-41.668s-18.656-41.668-41.668-41.668-41.668 18.656-41.668 41.668 18.656 41.668 41.668 41.668z"/>
  <path d="m95.832 50c0-12.656-20.52-22.918-45.832-22.918s-45.832 10.262-45.832 22.918h4.1641c0-9.5703 18.359-18.75 41.668-18.75s41.668 9.1797 41.668 18.75z"/>
  <path d="m95.609 47.547c0.14844 0.76953 0.22266 1.5469 0.22266 2.3242 0 2.4844-0.75391 4.9023-2.1953 7.168l-3.5156-2.2344c1.0312-1.625 1.5469-3.2695 1.5469-4.9336 0-0.51172-0.050781-1.0234-0.14844-1.5352zm-8.8281 16.152c-2.2461 1.5-4.8594 2.8516-7.7812 4.0234l-1.5547-3.8633c2.6641-1.0742 5.0273-2.293 7.0273-3.625zm-16.047 6.6719c-2.6797 0.66797-5.4961 1.2031-8.4062 1.5977l-0.5625-4.125c2.7617-0.37891 5.4297-0.88672 7.9648-1.5156zm-16.602 2.3281c-1.3516 0.058593-2.7148 0.089843-4.0859 0.089843-1.5273 0-3.0078-0.035156-4.4766-0.10156l0.19531-4.1641c1.4062 0.066406 2.8164 0.097656 4.2773 0.097656 1.3125 0 2.6172-0.027344 3.9102-0.085938zm-17.062-0.8125c-2.9141-0.41797-5.7227-0.97656-8.3984-1.6641l1.043-4.0352c2.5234 0.64844 5.1836 1.1797 7.9453 1.5742zm-16.746-4.4375c-2.918-1.2227-5.5117-2.6211-7.7266-4.1719l2.3906-3.4141c1.957 1.3711 4.293 2.6289 6.9453 3.7422zm-14.297-10.969c-1.2227-2.1055-1.8594-4.3281-1.8594-6.6094 0-0.9375 0.10547-1.8672 0.32031-2.7891l4.0586 0.94531c-0.14062 0.60938-0.21484 1.2266-0.21484 1.8438 0 1.5234 0.43359 3.0312 1.2969 4.5195z"/>
  <path d="m50 95.832c-12.656 0-22.918-20.52-22.918-45.832s10.262-45.832 22.918-45.832v4.1641c-9.5703 0-18.75 18.359-18.75 41.668s9.1797 41.668 18.75 41.668z"/>
  <path d="m47.547 95.609c0.76953 0.14844 1.5469 0.22266 2.3242 0.22266 2.4844 0 4.9023-0.75391 7.168-2.1953l-2.2344-3.5156c-1.625 1.0312-3.2695 1.5469-4.9336 1.5469-0.51172 0-1.0234-0.050781-1.5352-0.14844zm16.152-8.8281c1.5-2.2461 2.8516-4.8594 4.0234-7.7812l-3.8633-1.5547c-1.0742 2.6641-2.293 5.0273-3.625 7.0273zm6.6719-16.047c0.66797-2.6797 1.2031-5.4961 1.5977-8.4062l-4.125-0.5625c-0.37891 2.7617-0.88672 5.4297-1.5156 7.9648zm2.3281-16.602c0.058593-1.3516 0.089843-2.7148 0.089843-4.0859 0-1.5273-0.035156-3.0078-0.10156-4.4766l-4.1641 0.19531c0.066406 1.4062 0.097656 2.8164 0.097656 4.2773 0 1.3125-0.027344 2.6172-0.085938 3.9102zm-0.8125-17.062c-0.41797-2.9141-0.97656-5.7227-1.6641-8.3984l-4.0352 1.043c0.64844 2.5234 1.1797 5.1836 1.5742 7.9453zm-4.4375-16.746c-1.2227-2.918-2.6211-5.5117-4.1719-7.7266l-3.4141 2.3906c1.3711 1.957 2.6289 4.293 3.7422 6.9453zm-10.969-14.297c-2.1055-1.2227-4.3281-1.8594-6.6094-1.8594-0.9375 0-1.8672 0.10547-2.7891 0.32031l0.94531 4.0586c0.60938-0.14062 1.2266-0.21484 1.8438-0.21484 1.5234 0 3.0312 0.43359 4.5195 1.2969z"/>
 </g>
</svg>
